# xmcd
#
# Track frame offsets:
#	150
#	12520
#	25408
#	33723
#
# Disc length: 580 seconds
#
# Revision: 2
# Processed by: cddbd v1.4PL0 Copyright (c) Steve Scherf et al.
# Submitted via: audiograbber 1.80.04
#
DISCID=2e024204
DTITLE=Johnny Cash - Lil' Bit of Gold
DYEAR=1988
DGENRE=Oldies
TTITLE0=I Walk the Line
TTITLE1=Folsom Prison Blues
TTITLE2=Guess Things Happen That Way
TTITLE3=Ballad of a Teenage Queen
EXTD=
EXTT0=
EXTT1=
EXTT2=
EXTT3=
PLAYORDER=
